<mxfile host="app.diagrams.net" modified="2021-05-14T02:21:17.604Z" agent="5.0 (Windows NT 10.0; Win64; x64) AppleWebKit/537.36 (KHTML, like Gecko) Chrome/90.0.4430.212 Safari/537.36" etag="ig5mzVvgX14A_Pdbt99n" version="14.6.6" type="github">
  <diagram id="6I0OCvxSQrVGMHxT2VVA" name="Page-1">
    <mxGraphModel dx="1674" dy="800" grid="1" gridSize="10" guides="1" tooltips="1" connect="1" arrows="1" fold="1" page="1" pageScale="1" pageWidth="850" pageHeight="1100" math="0" shadow="0">
      <root>
        <mxCell id="0" />
        <mxCell id="1" parent="0" />
        <mxCell id="dKdSaXE48SgPbhcamS2K-30" value="" style="whiteSpace=wrap;html=1;strokeColor=none;strokeWidth=1;fillColor=#f5f5f5;fontSize=14;" parent="1" vertex="1">
          <mxGeometry x="194" y="670" width="1075" height="300" as="geometry" />
        </mxCell>
        <mxCell id="dKdSaXE48SgPbhcamS2K-31" value="" style="whiteSpace=wrap;html=1;strokeColor=none;strokeWidth=1;fillColor=#f5f5f5;fontSize=14;" parent="1" vertex="1">
          <mxGeometry x="194" y="240" width="1075" height="420" as="geometry" />
        </mxCell>
        <mxCell id="dKdSaXE48SgPbhcamS2K-32" value="" style="whiteSpace=wrap;html=1;strokeColor=none;strokeWidth=1;fillColor=#f5f5f5;fontSize=14;" parent="1" vertex="1">
          <mxGeometry x="194" y="60" width="1075" height="140" as="geometry" />
        </mxCell>
        <mxCell id="dKdSaXE48SgPbhcamS2K-33" value="Entity" style="html=1;whiteSpace=wrap;fillColor=#AFFFAF;shape=mxgraph.archimate3.application;appType=node;archiType=square;fontSize=14;verticalAlign=top;" parent="1" vertex="1">
          <mxGeometry x="630" y="817.5" width="240" height="145" as="geometry" />
        </mxCell>
        <mxCell id="dKdSaXE48SgPbhcamS2K-34" style="edgeStyle=elbowEdgeStyle;rounded=1;elbow=vertical;html=1;startSize=10;endArrow=block;endFill=0;endSize=10;jettySize=auto;orthogonalLoop=1;strokeColor=#808080;fontSize=14;dashed=1;" parent="1" source="dKdSaXE48SgPbhcamS2K-35" target="dKdSaXE48SgPbhcamS2K-40" edge="1">
          <mxGeometry relative="1" as="geometry" />
        </mxCell>
        <mxCell id="dKdSaXE48SgPbhcamS2K-35" value="&lt;div&gt;&lt;br&gt;&lt;/div&gt;DelayedTaskPo" style="html=1;whiteSpace=wrap;fillColor=#AFFFAF;shape=mxgraph.archimate3.tech;techType=sysSw;fontSize=14;" parent="1" vertex="1">
          <mxGeometry x="682" y="860" width="140" height="60" as="geometry" />
        </mxCell>
        <mxCell id="dKdSaXE48SgPbhcamS2K-38" style="edgeStyle=elbowEdgeStyle;rounded=1;elbow=vertical;html=1;startSize=10;endArrow=open;endFill=0;endSize=10;jettySize=auto;orthogonalLoop=1;strokeColor=#808080;fontSize=14;entryX=0.5;entryY=1;entryDx=0;entryDy=0;" parent="1" source="dKdSaXE48SgPbhcamS2K-40" target="dKdSaXE48SgPbhcamS2K-49" edge="1">
          <mxGeometry relative="1" as="geometry">
            <Array as="points">
              <mxPoint x="840" y="640" />
            </Array>
          </mxGeometry>
        </mxCell>
        <mxCell id="dKdSaXE48SgPbhcamS2K-39" style="edgeStyle=elbowEdgeStyle;rounded=1;elbow=vertical;html=1;startSize=10;endArrow=open;endFill=0;endSize=10;jettySize=auto;orthogonalLoop=1;strokeColor=#808080;fontSize=14;exitX=0.5;exitY=0;exitPerimeter=0;entryX=0.5;entryY=1;entryDx=0;entryDy=0;exitDx=0;exitDy=0;" parent="1" source="dKdSaXE48SgPbhcamS2K-40" target="dKdSaXE48SgPbhcamS2K-47" edge="1">
          <mxGeometry relative="1" as="geometry">
            <Array as="points">
              <mxPoint x="650" y="640" />
            </Array>
          </mxGeometry>
        </mxCell>
        <mxCell id="dKdSaXE48SgPbhcamS2K-40" value="DelayedTaskDao" style="html=1;whiteSpace=wrap;fillColor=#AFFFAF;shape=mxgraph.archimate3.service;fontSize=14;" parent="1" vertex="1">
          <mxGeometry x="677" y="720" width="150" height="50" as="geometry" />
        </mxCell>
        <mxCell id="dKdSaXE48SgPbhcamS2K-46" style="edgeStyle=elbowEdgeStyle;rounded=1;elbow=vertical;html=1;startSize=10;endArrow=open;endFill=0;endSize=10;jettySize=auto;orthogonalLoop=1;strokeColor=#808080;fontSize=14;entryX=0.5;entryY=1;entryDx=0;entryDy=0;entryPerimeter=0;" parent="1" source="dKdSaXE48SgPbhcamS2K-47" target="BOTIw7SFozuOj5DUvx4i-1" edge="1">
          <mxGeometry relative="1" as="geometry" />
        </mxCell>
        <mxCell id="dKdSaXE48SgPbhcamS2K-47" value="DelayedScheduler" style="shape=component;align=center;fillColor=#99ffff;gradientColor=none;fontSize=14;" parent="1" vertex="1">
          <mxGeometry x="460" y="501" width="185" height="80" as="geometry" />
        </mxCell>
        <mxCell id="dKdSaXE48SgPbhcamS2K-49" value="DelayedTaskRetryListener" style="shape=component;align=center;fillColor=#99ffff;gradientColor=none;fontSize=14;" parent="1" vertex="1">
          <mxGeometry x="824" y="501" width="216" height="80" as="geometry" />
        </mxCell>
        <mxCell id="dKdSaXE48SgPbhcamS2K-52" style="edgeStyle=elbowEdgeStyle;rounded=1;elbow=vertical;html=1;startSize=10;endArrow=open;endFill=0;endSize=10;jettySize=auto;orthogonalLoop=1;strokeColor=#808080;fontSize=14;" parent="1" source="BOTIw7SFozuOj5DUvx4i-1" target="BOTIw7SFozuOj5DUvx4i-2" edge="1">
          <mxGeometry relative="1" as="geometry">
            <mxPoint x="1061.5" y="510" as="sourcePoint" />
          </mxGeometry>
        </mxCell>
        <mxCell id="dKdSaXE48SgPbhcamS2K-54" value="延时消息" style="html=1;whiteSpace=wrap;fillColor=#ffff99;shape=mxgraph.archimate3.application;appType=func;archiType=rounded;fontSize=14;" parent="1" vertex="1">
          <mxGeometry x="356.5" y="90" width="150" height="75" as="geometry" />
        </mxCell>
        <mxCell id="dKdSaXE48SgPbhcamS2K-55" value="延时统计" style="html=1;whiteSpace=wrap;fillColor=#ffff99;shape=mxgraph.archimate3.application;appType=collab;archiType=square;fontSize=14;" parent="1" vertex="1">
          <mxGeometry x="564.5" y="90" width="150" height="75" as="geometry" />
        </mxCell>
        <mxCell id="dKdSaXE48SgPbhcamS2K-56" value="延时投放" style="html=1;whiteSpace=wrap;fillColor=#ffff99;shape=mxgraph.archimate3.application;appType=event;archiType=rounded;fontSize=14;" parent="1" vertex="1">
          <mxGeometry x="789" y="90" width="150" height="75" as="geometry" />
        </mxCell>
        <mxCell id="dKdSaXE48SgPbhcamS2K-57" value="延时取消" style="html=1;whiteSpace=wrap;fillColor=#ffff99;shape=mxgraph.archimate3.application;appType=proc;archiType=rounded;fontSize=14;" parent="1" vertex="1">
          <mxGeometry x="996.5" y="90" width="150" height="75" as="geometry" />
        </mxCell>
        <mxCell id="dKdSaXE48SgPbhcamS2K-58" value="持久化" style="text;html=1;strokeColor=none;fillColor=none;align=center;verticalAlign=middle;whiteSpace=wrap;fontSize=14;" parent="1" vertex="1">
          <mxGeometry x="1269" y="810" width="240" height="20" as="geometry" />
        </mxCell>
        <mxCell id="dKdSaXE48SgPbhcamS2K-59" value="逻辑实现" style="text;html=1;strokeColor=none;fillColor=none;align=center;verticalAlign=middle;whiteSpace=wrap;fontSize=14;" parent="1" vertex="1">
          <mxGeometry x="1259" y="449" width="240" height="20" as="geometry" />
        </mxCell>
        <mxCell id="dKdSaXE48SgPbhcamS2K-60" value="业务" style="text;html=1;strokeColor=none;fillColor=none;align=center;verticalAlign=middle;whiteSpace=wrap;fontSize=14;" parent="1" vertex="1">
          <mxGeometry x="1259" y="120" width="240" height="20" as="geometry" />
        </mxCell>
        <mxCell id="dKdSaXE48SgPbhcamS2K-61" style="edgeStyle=elbowEdgeStyle;rounded=1;elbow=vertical;html=1;dashed=1;startSize=10;endArrow=block;endFill=0;endSize=10;jettySize=auto;orthogonalLoop=1;strokeColor=#808080;fontSize=14;" parent="1" source="dKdSaXE48SgPbhcamS2K-62" target="dKdSaXE48SgPbhcamS2K-54" edge="1">
          <mxGeometry relative="1" as="geometry" />
        </mxCell>
        <mxCell id="dKdSaXE48SgPbhcamS2K-62" value="" style="html=1;whiteSpace=wrap;fillColor=#ffff99;shape=mxgraph.archimate3.actor;fontSize=14;" parent="1" vertex="1">
          <mxGeometry x="229" y="80" width="50" height="95" as="geometry" />
        </mxCell>
        <mxCell id="dKdSaXE48SgPbhcamS2K-63" value="Title" style="text;strokeColor=none;fillColor=none;html=1;fontSize=24;fontStyle=1;verticalAlign=middle;align=center;" parent="1" vertex="1">
          <mxGeometry x="50" y="10" width="1590" height="40" as="geometry" />
        </mxCell>
        <mxCell id="BOTIw7SFozuOj5DUvx4i-1" value="PreCheckTask" style="html=1;whiteSpace=wrap;shape=mxgraph.archimate3.service;fontSize=14;strokeColor=#0e8088;fillColor=#99FFFF;" vertex="1" parent="1">
          <mxGeometry x="477.5" y="399" width="150" height="50" as="geometry" />
        </mxCell>
        <mxCell id="BOTIw7SFozuOj5DUvx4i-2" value="DelayedTask" style="html=1;whiteSpace=wrap;shape=mxgraph.archimate3.service;fontSize=14;strokeColor=#0e8088;fillColor=#99FFFF;" vertex="1" parent="1">
          <mxGeometry x="477.5" y="280" width="150" height="50" as="geometry" />
        </mxCell>
        <mxCell id="BOTIw7SFozuOj5DUvx4i-3" style="edgeStyle=elbowEdgeStyle;rounded=1;elbow=vertical;html=1;startSize=10;endArrow=open;endFill=0;endSize=10;jettySize=auto;orthogonalLoop=1;strokeColor=#808080;fontSize=14;" edge="1" parent="1" source="dKdSaXE48SgPbhcamS2K-47" target="dKdSaXE48SgPbhcamS2K-49">
          <mxGeometry relative="1" as="geometry">
            <Array as="points">
              <mxPoint x="650" y="551" />
            </Array>
            <mxPoint x="626.75" y="730.3499999999999" as="sourcePoint" />
            <mxPoint x="482.5" y="601" as="targetPoint" />
          </mxGeometry>
        </mxCell>
        <mxCell id="BOTIw7SFozuOj5DUvx4i-4" style="edgeStyle=orthogonalEdgeStyle;rounded=0;orthogonalLoop=1;jettySize=auto;html=1;exitX=0.5;exitY=0;exitDx=0;exitDy=0;exitPerimeter=0;entryX=0.504;entryY=0.22;entryDx=0;entryDy=0;entryPerimeter=0;" edge="1" parent="1" source="BOTIw7SFozuOj5DUvx4i-1" target="BOTIw7SFozuOj5DUvx4i-1">
          <mxGeometry relative="1" as="geometry" />
        </mxCell>
      </root>
    </mxGraphModel>
  </diagram>
</mxfile>
